<svg xmlns="http://www.w3.org/2000/svg" xmlns:xlink="http://www.w3.org/1999/xlink" width="4000" zoomAndPan="magnify" viewBox="0 0 3000 1499.999933" height="2000" preserveAspectRatio="xMidYMid meet" version="1.2"><defs><clipPath id="297e76153d"><path d="M 1.019531 405.261719 L 484 405.261719 L 484 880 L 1.019531 880 Z M 1.019531 405.261719 "/></clipPath><clipPath id="da79285ca5"><path d="M 1.019531 879.464844 L 82.953125 879.464844 L 82.953125 524.472656 L 200.808594 838.183594 L 283.402344 838.183594 L 401.292969 524.472656 L 401.292969 879.464844 L 483.226562 879.464844 L 483.226562 405.261719 L 368.644531 405.261719 L 242.785156 742.917969 L 116.890625 405.261719 L 2.339844 405.261719 L 2.339844 879.464844 Z M 1.019531 879.464844 "/></clipPath><clipPath id="d9e7a0c968"><path d="M 0.0195312 0.261719 L 482 0.261719 L 482 474.558594 L 0.0195312 474.558594 Z M 0.0195312 0.261719 "/></clipPath><clipPath id="4b13695525"><path d="M 0.0195312 474.464844 L 81.953125 474.464844 L 81.953125 119.472656 L 199.808594 433.183594 L 282.402344 433.183594 L 400.292969 119.472656 L 400.292969 474.464844 L 482.226562 474.464844 L 482.226562 0.261719 L 367.644531 0.261719 L 241.785156 337.917969 L 115.890625 0.261719 L 1.339844 0.261719 L 1.339844 474.464844 Z M 0.0195312 474.464844 "/></clipPath><clipPath id="8447152b4e"><rect x="0" width="483" y="0" height="475"/></clipPath><clipPath id="3426854e2c"><path d="M 188.503906 983.378906 L 295.046875 983.378906 L 295.046875 1126.5 L 188.503906 1126.5 Z M 188.503906 1126.5 L 483.242188 1126.5 L 483.242188 1233.078125 L 188.503906 1233.078125 Z M 188.503906 1126.5 "/></clipPath><clipPath id="a00d3498fb"><path d="M 0.503906 0.378906 L 107.046875 0.378906 L 107.046875 143.5 L 0.503906 143.5 Z M 0.503906 143.5 L 295.242188 143.5 L 295.242188 250.078125 L 0.503906 250.078125 Z M 0.503906 143.5 "/></clipPath><clipPath id="ecfcc4ae38"><rect x="0" width="296" y="0" height="251"/></clipPath><clipPath id="20d3a3fade"><path d="M 661.328125 405.257812 L 767.871094 405.257812 L 767.871094 1233.058594 L 661.328125 1233.058594 Z M 661.328125 405.257812 "/></clipPath><clipPath id="5c969aecba"><path d="M 0.328125 0.257812 L 106.871094 0.257812 L 106.871094 828.058594 L 0.328125 828.058594 Z M 0.328125 0.257812 "/></clipPath><clipPath id="e6879760bc"><rect x="0" width="107" y="0" height="829"/></clipPath><clipPath id="264b769dc4"><path d="M 188.5 0.933594 L 1312.847656 0.933594 L 1312.847656 107.476562 L 188.5 107.476562 Z M 188.5 107.476562 L 295.042969 107.476562 L 295.042969 301.347656 L 188.5 301.347656 Z M 188.5 107.476562 "/></clipPath><clipPath id="de1f6eed51"><path d="M 0.5 0.933594 L 1124.847656 0.933594 L 1124.847656 107.476562 L 0.5 107.476562 Z M 0.5 107.476562 L 107.042969 107.476562 L 107.042969 301.347656 L 0.5 301.347656 Z M 0.5 107.476562 "/></clipPath><clipPath id="858e915019"><rect x="0" width="1125" y="0" height="302"/></clipPath><clipPath id="d117fd9eaf"><path d="M 945.980469 405.261719 L 1312.28125 405.261719 L 1312.28125 880 L 945.980469 880 Z M 945.980469 405.261719 "/></clipPath><clipPath id="2fca4d2824"><path d="M 945.980469 879.464844 L 1027.914062 879.464844 L 1027.914062 546.472656 L 1227.039062 879.464844 L 1312.28125 879.464844 L 1312.28125 405.261719 L 1230.347656 405.261719 L 1230.347656 737.59375 L 1030.558594 405.261719 L 945.980469 405.261719 Z M 945.980469 879.464844 "/></clipPath><clipPath id="9e4738c5e2"><path d="M 0.980469 0.261719 L 367.28125 0.261719 L 367.28125 474 L 0.980469 474 Z M 0.980469 0.261719 "/></clipPath><clipPath id="b6812c9558"><path d="M 0.980469 474.464844 L 82.914062 474.464844 L 82.914062 141.472656 L 282.039062 474.464844 L 367.28125 474.464844 L 367.28125 0.261719 L 285.347656 0.261719 L 285.347656 332.59375 L 85.558594 0.261719 L 0.980469 0.261719 Z M 0.980469 474.464844 "/></clipPath><clipPath id="f274fb78c0"><rect x="0" width="368" y="0" height="475"/></clipPath><clipPath id="a582c9f6bc"><path d="M 1511.160156 0.929688 L 1617.703125 0.929688 L 1617.703125 879.441406 L 1511.160156 879.441406 Z M 1511.160156 0.929688 "/></clipPath><clipPath id="4f30bbc680"><path d="M 0.160156 0.929688 L 106.703125 0.929688 L 106.703125 879.441406 L 0.160156 879.441406 Z M 0.160156 0.929688 "/></clipPath><clipPath id="f7f49f9585"><rect x="0" width="107" y="0" height="880"/></clipPath><clipPath id="91c509cac3"><path d="M 1815.828125 405.261719 L 2299 405.261719 L 2299 880 L 1815.828125 880 Z M 1815.828125 405.261719 "/></clipPath><clipPath id="f18258bd11"><path d="M 1815.828125 879.464844 L 1897.765625 879.464844 L 1897.765625 524.472656 L 2015.617188 838.183594 L 2098.214844 838.183594 L 2216.101562 524.472656 L 2216.101562 879.464844 L 2298.035156 879.464844 L 2298.035156 405.261719 L 2183.453125 405.261719 L 2057.59375 742.917969 L 1931.699219 405.261719 L 1817.152344 405.261719 L 1817.152344 879.464844 Z M 1815.828125 879.464844 "/></clipPath><clipPath id="b244f65e03"><path d="M 0.828125 0.261719 L 483 0.261719 L 483 474.558594 L 0.828125 474.558594 Z M 0.828125 0.261719 "/></clipPath><clipPath id="f05f9e1ab3"><path d="M 0.828125 474.464844 L 82.765625 474.464844 L 82.765625 119.472656 L 200.617188 433.183594 L 283.214844 433.183594 L 401.101562 119.472656 L 401.101562 474.464844 L 483.035156 474.464844 L 483.035156 0.261719 L 368.453125 0.261719 L 242.59375 337.917969 L 116.699219 0.261719 L 2.152344 0.261719 L 2.152344 474.464844 Z M 0.828125 474.464844 "/></clipPath><clipPath id="5ac7b4fbee"><rect x="0" width="484" y="0" height="475"/></clipPath><clipPath id="840e2c2fa9"><path d="M 946.007812 983.378906 L 2770.914062 983.378906 L 2770.914062 1233.320312 L 946.007812 1233.320312 Z M 946.007812 983.378906 "/></clipPath><clipPath id="13a165b24b"><path d="M 2770.867188 983.378906 L 2770.867188 1233.078125 L 946.007812 1233.078125 L 946.007812 1126.570312 L 2664.324219 1126.5 L 2664.324219 983.378906 Z M 2770.867188 983.378906 "/></clipPath><clipPath id="35fd7e01b4"><path d="M 0.0078125 0.378906 L 1824.914062 0.378906 L 1824.914062 250.078125 L 0.0078125 250.078125 Z M 0.0078125 0.378906 "/></clipPath><clipPath id="f159dd935a"><path d="M 1824.867188 0.378906 L 1824.867188 250.078125 L 0.0078125 250.078125 L 0.0078125 143.570312 L 1718.324219 143.5 L 1718.324219 0.378906 Z M 1824.867188 0.378906 "/></clipPath><clipPath id="5ae768dfd9"><rect x="0" width="1825" y="0" height="251"/></clipPath><clipPath id="ca7cf537ff"><path d="M 1816.625 0.933594 L 2770.875 0.933594 L 2770.875 107.476562 L 1816.625 107.476562 Z M 2664.226562 107.476562 L 2770.875 107.476562 L 2770.875 301.347656 L 2664.226562 301.347656 Z M 2664.226562 107.476562 "/></clipPath><clipPath id="bd18acf0e9"><path d="M 0.625 0.933594 L 954.875 0.933594 L 954.875 107.476562 L 0.625 107.476562 Z M 848.226562 107.476562 L 954.875 107.476562 L 954.875 301.347656 L 848.226562 301.347656 Z M 848.226562 107.476562 "/></clipPath><clipPath id="1dfb0dff0d"><rect x="0" width="955" y="0" height="302"/></clipPath><clipPath id="56c6f2a870"><path d="M 2496.121094 404.640625 L 2939 404.640625 L 2939 880 L 2496.121094 880 Z M 2496.121094 404.640625 "/></clipPath><clipPath id="b03eabf7e4"><path d="M 2654.632812 703.589844 L 2717.910156 530.464844 L 2781.152344 703.589844 Z M 2771.578125 459.214844 L 2749.824219 404.640625 L 2685.886719 404.640625 L 2496.121094 879.433594 L 2589.367188 879.433594 L 2625.949219 776.265625 L 2810.457031 776.265625 L 2847.109375 879.433594 L 2939 879.433594 Z M 2771.578125 459.214844 "/></clipPath><clipPath id="cfcc838fa5"><path d="M 0.121094 0.640625 L 443 0.640625 L 443 475 L 0.121094 475 Z M 0.121094 0.640625 "/></clipPath><clipPath id="05ac8ab784"><path d="M 158.632812 299.589844 L 221.910156 126.464844 L 285.152344 299.589844 Z M 275.578125 55.214844 L 253.824219 0.640625 L 189.886719 0.640625 L 0.121094 475.433594 L 93.367188 475.433594 L 129.949219 372.265625 L 314.457031 372.265625 L 351.109375 475.433594 L 443 475.433594 Z M 275.578125 55.214844 "/></clipPath><clipPath id="f7d81b94c4"><rect x="0" width="443" y="0" height="476"/></clipPath><clipPath id="e023843391"><rect x="0" width="2940" y="0" height="1234"/></clipPath></defs><g id="443eb718aa"><g transform="matrix(1,0,0,1,30,133)"><g clip-path="url(#e023843391)"><g clip-rule="nonzero" clip-path="url(#297e76153d)"><g clip-rule="nonzero" clip-path="url(#da79285ca5)"><g transform="matrix(1,0,0,1,1,405)"><g id="abb63a8638" clip-path="url(#8447152b4e)"><g clip-rule="nonzero" clip-path="url(#d9e7a0c968)"><g clip-rule="nonzero" clip-path="url(#4b13695525)"><path style=" stroke:none;fill-rule:nonzero;fill:#000000;fill-opacity:1;" d="M 0.0195312 0.261719 L 481.621094 0.261719 L 481.621094 474.457031 L 0.0195312 474.457031 Z M 0.0195312 0.261719 "/></g></g></g></g></g></g><g clip-rule="nonzero" clip-path="url(#3426854e2c)"><g transform="matrix(1,0,0,1,188,983)"><g id="85f3eb6beb" clip-path="url(#ecfcc4ae38)"><g clip-rule="nonzero" clip-path="url(#a00d3498fb)"><path style=" stroke:none;fill-rule:nonzero;fill:#86a7a5;fill-opacity:1;" d="M 0.503906 0.378906 L 295.0625 0.378906 L 295.0625 250.070312 L 0.503906 250.070312 Z M 0.503906 0.378906 "/></g></g></g></g><g clip-rule="nonzero" clip-path="url(#20d3a3fade)"><g transform="matrix(1,0,0,1,661,405)"><g id="8d6a3061f0" clip-path="url(#e6879760bc)"><g clip-rule="nonzero" clip-path="url(#5c969aecba)"><path style=" stroke:none;fill-rule:nonzero;fill:#86a7a5;fill-opacity:1;" d="M 0.328125 0.257812 L 106.886719 0.257812 L 106.886719 828.148438 L 0.328125 828.148438 Z M 0.328125 0.257812 "/></g></g></g></g><g clip-rule="nonzero" clip-path="url(#264b769dc4)"><g transform="matrix(1,0,0,1,188,0.000000000000113687)"><g id="ef90e2c1fb" clip-path="url(#858e915019)"><g clip-rule="nonzero" clip-path="url(#de1f6eed51)"><path style=" stroke:none;fill-rule:nonzero;fill:#86a7a5;fill-opacity:1;" d="M 0.5 0.933594 L 1124.714844 0.933594 L 1124.714844 301.351562 L 0.5 301.351562 Z M 0.5 0.933594 "/></g></g></g></g><g clip-rule="nonzero" clip-path="url(#d117fd9eaf)"><g clip-rule="nonzero" clip-path="url(#2fca4d2824)"><g transform="matrix(1,0,0,1,945,405)"><g id="004241c3b2" clip-path="url(#f274fb78c0)"><g clip-rule="nonzero" clip-path="url(#9e4738c5e2)"><g clip-rule="nonzero" clip-path="url(#b6812c9558)"><path style=" stroke:none;fill-rule:nonzero;fill:#000000;fill-opacity:1;" d="M 0.980469 0.261719 L 367.28125 0.261719 L 367.28125 473.878906 L 0.980469 473.878906 Z M 0.980469 0.261719 "/></g></g></g></g></g></g><g clip-rule="nonzero" clip-path="url(#a582c9f6bc)"><g transform="matrix(1,0,0,1,1511,0.000000000000113687)"><g id="9213c1ad41" clip-path="url(#f7f49f9585)"><g clip-rule="nonzero" clip-path="url(#4f30bbc680)"><path style=" stroke:none;fill-rule:nonzero;fill:#86a7a5;fill-opacity:1;" d="M 0.160156 0.929688 L 106.71875 0.929688 L 106.71875 879.628906 L 0.160156 879.628906 Z M 0.160156 0.929688 "/></g></g></g></g><g clip-rule="nonzero" clip-path="url(#91c509cac3)"><g clip-rule="nonzero" clip-path="url(#f18258bd11)"><g transform="matrix(1,0,0,1,1815,405)"><g id="abc073d2c7" clip-path="url(#5ac7b4fbee)"><g clip-rule="nonzero" clip-path="url(#b244f65e03)"><g clip-rule="nonzero" clip-path="url(#f05f9e1ab3)"><path style=" stroke:none;fill-rule:nonzero;fill:#000000;fill-opacity:1;" d="M 0.828125 0.261719 L 482.433594 0.261719 L 482.433594 474.457031 L 0.828125 474.457031 Z M 0.828125 0.261719 "/></g></g></g></g></g></g><g clip-rule="nonzero" clip-path="url(#840e2c2fa9)"><g clip-rule="nonzero" clip-path="url(#13a165b24b)"><g transform="matrix(1,0,0,1,946,983)"><g id="f8dedba5b4" clip-path="url(#5ae768dfd9)"><g clip-rule="nonzero" clip-path="url(#35fd7e01b4)"><g clip-rule="nonzero" clip-path="url(#f159dd935a)"><path style=" stroke:none;fill-rule:nonzero;fill:#86a7a5;fill-opacity:1;" d="M 0.0078125 0.378906 L 1824.914062 0.378906 L 1824.914062 250.070312 L 0.0078125 250.070312 Z M 0.0078125 0.378906 "/></g></g></g></g></g></g><g clip-rule="nonzero" clip-path="url(#ca7cf537ff)"><g transform="matrix(1,0,0,1,1816,0.000000000000113687)"><g id="dad2f0ea95" clip-path="url(#1dfb0dff0d)"><g clip-rule="nonzero" clip-path="url(#bd18acf0e9)"><path style=" stroke:none;fill-rule:nonzero;fill:#86a7a5;fill-opacity:1;" d="M 0.625 0.933594 L 954.679688 0.933594 L 954.679688 301.351562 L 0.625 301.351562 Z M 0.625 0.933594 "/></g></g></g></g><g clip-rule="nonzero" clip-path="url(#56c6f2a870)"><g clip-rule="nonzero" clip-path="url(#b03eabf7e4)"><g transform="matrix(1,0,0,1,2496,404)"><g id="667476aed2" clip-path="url(#f7d81b94c4)"><g clip-rule="nonzero" clip-path="url(#cfcc838fa5)"><g clip-rule="nonzero" clip-path="url(#05ac8ab784)"><path style=" stroke:none;fill-rule:nonzero;fill:#000000;fill-opacity:1;" d="M 0.121094 0.640625 L 442.980469 0.640625 L 442.980469 474.636719 L 0.121094 474.636719 Z M 0.121094 0.640625 "/></g></g></g></g></g></g></g></g></g></svg>